<svg width="220" height="191" viewBox="0 0 220 191" fill="none" xmlns="http://www.w3.org/2000/svg">
<mask id="mask0_151_830" style="mask-type:alpha" maskUnits="userSpaceOnUse" x="0" y="0" width="220" height="191">
<rect width="220" height="191" fill="#FFF"/>
</mask>
<g mask="url(#mask0_151_830)">
<path d="M144.103 31.536C150.691 23.0398 156.702 14.1014 163.425 5.69637C163.874 5.13786 164.309 4.56403 164.78 4.02247C166.955 1.52119 168.212 1.31256 170.927 3.04442C173.133 4.4493 175.385 5.79619 177.491 7.34178C180.033 9.20784 180.394 10.3997 179.11 13.1719C168.087 37.0087 160.741 62.1362 152.77 87.0527C148.655 99.9229 145.105 112.939 141.723 126.003C140.466 130.862 139.569 135.809 139.212 140.827C139.033 143.337 139.063 145.873 139.82 148.282C140.653 150.942 142.458 151.63 144.748 150.158C146.65 148.937 148.523 147.584 149.667 145.546C160.721 125.863 172.016 106.3 181.374 85.7264C187.705 71.8052 194.192 57.9583 200.824 44.1799C202.376 40.9554 204.191 37.8514 205.989 34.7516C208.241 30.8716 210.704 30.1063 214.66 32.0808C217.107 33.2984 219.46 34.7041 221.848 36.0387C224.011 37.2487 224.094 39.1848 223.707 41.3283C222.677 46.9676 221.65 52.6091 220.69 58.2603C218.727 69.8075 215.51 81.1136 213.693 92.6738C211.058 109.423 207.851 126.111 206.767 143.066C206.375 149.148 206.462 155.239 207.714 161.25C208.055 162.892 208.203 165.088 209.814 165.494C211.82 166.005 212.597 163.641 213.694 162.32C214.364 161.514 214.732 160.452 215.229 159.499C220.701 149.068 223.905 137.783 227.714 126.722C234.257 107.736 239.982 88.5097 245.063 69.0908C248.524 55.8637 250.639 42.4222 250.889 28.748C251.15 14.2937 246.704 1.43274 238.338 -10.3819C232.206 -19.0421 224.929 -26.4407 217.002 -33.3261C209.81 -39.5773 202.598 -45.8095 195.433 -52.0949C192.992 -54.2389 190.164 -55.7926 187.474 -57.5439C181.494 -61.4408 175.701 -65.6081 169.274 -68.8409C154.541 -76.2444 139.195 -77.3708 123.278 -73.9199C110.037 -71.0459 97.2462 -66.9297 85.0544 -60.8614C71.1041 -53.9167 57.4979 -46.4829 45.8238 -35.9819C38.3088 -29.2243 31.4349 -21.9642 27.8351 -12.2106C26.8482 -9.54277 26.9085 -7.15217 28.3733 -4.6906C29.5757 -2.67419 31.1768 -1.56908 33.5181 -1.35221C38.8716 -0.85192 43.9821 -2.01302 48.9347 -3.80856C55.6891 -6.25912 62.1117 -9.4839 68.2142 -13.2653C86.4919 -24.5944 104.702 -36.034 122.315 -48.392C125.128 -50.3638 127.578 -50.6324 130.477 -48.6657C133.574 -46.5665 136.217 -44.0118 138.686 -41.2722C140.613 -39.1374 140.349 -36.613 138.579 -34.1535C131.387 -24.1563 123.392 -14.7788 116.006 -4.93361C109.778 3.37445 103.612 11.7334 97.6392 20.2252C90.7795 29.982 83.917 39.7582 77.9649 50.1015C71.2991 61.6885 64.376 73.164 59.9928 85.9095C57.8501 92.1459 57.1417 98.438 58.263 104.952C58.7679 107.895 60.0579 110.386 62.0896 112.466C64.4846 114.925 67.3614 115.512 70.6055 114.19C75.3435 112.257 79.2252 109.08 82.8489 105.587C88.2702 100.36 93.4017 94.8566 98.1087 88.9643C105.129 80.1783 112.197 71.4305 119.244 62.6656L119.186 62.619C127.506 52.2709 135.97 42.0298 144.103 31.536ZM139.22 63.4718C133.582 71.6387 127.921 79.7866 121.902 87.6776C112.784 99.6271 101.481 109.424 90.4814 119.518C85.9449 123.682 80.914 127.059 75.1012 129.169C71.1991 130.586 67.0692 131.434 63.1977 129.791C50.7442 124.511 42.1213 116.025 41.1785 101.639C40.329 88.6638 42.6019 76.1909 47.5329 64.1721C49.6694 58.963 52.4602 54.0892 55.3075 49.2477C61.7812 38.2394 68.0083 27.0848 75.4467 16.6569C80.8674 9.05691 86.4789 1.61897 92.357 -5.62196C93.6018 -7.15412 94.8313 -8.6943 96.0662 -10.2302C92.7903 -9.0688 89.7647 -7.52824 86.8906 -5.74453C75.4052 1.38193 63.674 8.01575 51.1912 13.2646C46.6316 15.1809 41.9946 16.6056 37.0899 17.1601C32.3278 17.6992 27.87 16.8563 23.5881 14.6672C20.8795 13.2832 18.7391 11.2197 16.4392 9.34897C8.3748 2.79581 5.65102 -9.70412 10.4727 -18.9004C13.5161 -24.7033 16.9251 -30.2381 21.4282 -35.1754C28.2941 -42.7064 35.4912 -49.8454 43.6965 -55.8485C60.0469 -67.8121 77.4728 -77.9523 96.3745 -85.3315C106.989 -89.4757 118.096 -91.8317 129.361 -93.4572C145.421 -95.7743 160.628 -91.7451 175.795 -87.4279C177.269 -87.0062 178.654 -86.2479 180.061 -85.6073C185.953 -82.9174 191.127 -79.1566 196.253 -75.2343C203.353 -69.7953 210.101 -63.9407 216.933 -58.1914C223.411 -52.7449 229.236 -46.6168 235.087 -40.5035C242.903 -32.3366 250.991 -24.4155 256.796 -14.5826C260.193 -8.82792 262.998 -2.75633 265.083 3.57852C267.757 11.7055 268.199 20.2241 268.306 28.7022C268.414 37.6682 267.122 46.5362 265.912 55.4266C264.374 66.7162 261.834 77.7298 258.259 88.5266C255.554 96.6923 252.394 104.722 250.058 112.985C246.093 127.029 241.321 140.781 236.127 154.401C232.836 163.019 228.852 171.298 223.184 178.672C220.398 182.293 216.878 184.988 212.496 186.145C204.397 188.282 197.041 186.328 193.631 177.817C191.632 172.836 190.037 167.689 189.948 162.226C189.645 143.544 191.639 125.035 194.415 106.59C195.07 102.22 195.926 97.8813 196.652 93.5203C196.77 92.8127 197.286 91.9872 196.239 91.197C195.002 93.5987 193.84 95.9393 192.604 98.2375C183.269 115.582 174.17 133.05 164.622 150.283C161.647 155.655 158.381 160.715 154.427 165.391C150.509 170.026 145.39 172.066 139.564 172.079C133.841 172.092 128.951 169.779 126.258 164.535C122.534 157.272 119.911 149.637 120.189 141.242C120.411 134.503 121.741 127.982 123.433 121.487C128.771 100.999 135.558 80.9957 143.418 61.3424C144.031 59.8139 144.768 58.3201 144.737 56.4866C142.587 58.5835 140.909 61.0258 139.22 63.4718Z" fill="#FFF"/>
</g>
</svg>
