<svg width="16" height="16" viewBox="0 0 16 16" fill="none" xmlns="http://www.w3.org/2000/svg">
<g clip-path="url(#clip0_137_1097)">
<path d="M15.2188 7.21875C14.7875 7.21875 14.4375 7.56875 14.4375 8C14.4375 11.55 11.55 14.4375 8 14.4375C4.45 14.4375 1.5625 11.55 1.5625 8C1.5625 7.56875 1.2125 7.21875 0.78125 7.21875C0.35 7.21875 0 7.56875 0 8C0 10.1375 0.83125 12.1469 2.34375 13.6562C3.85625 15.1687 5.8625 16 8 16C10.1375 16 12.1469 15.1687 13.6562 13.6562C15.1687 12.1438 16 10.1375 16 8C16 7.56875 15.65 7.21875 15.2188 7.21875Z" fill="#81543A"/>
<path d="M6.92793 10.7375C7.21543 11.025 7.59668 11.1812 7.9998 11.1812C8.40605 11.1812 8.7873 11.0219 9.07168 10.7375L11.0373 8.77188C11.3436 8.46563 11.3436 7.97188 11.0373 7.66563C10.7311 7.35938 10.2373 7.35938 9.93105 7.66563L8.78105 8.81875V0.78125C8.78105 0.35 8.43105 0 7.9998 0C7.56855 0 7.21855 0.35 7.21855 0.78125V8.81875L6.06543 7.66563C5.75918 7.35938 5.26543 7.35938 4.95918 7.66563C4.65293 7.97188 4.65293 8.46563 4.95918 8.77188L6.92793 10.7375Z" fill="#81543A"/>
</g>
<defs>
<clipPath id="clip0_137_1097">
<rect width="16" height="16" fill="white"/>
</clipPath>
</defs>
</svg>
