<svg width="72" height="73" viewBox="0 0 72 73" fill="none" xmlns="http://www.w3.org/2000/svg">
<circle cx="36" cy="36.5" r="36" fill="#8e3014"/>
<g clip-path="url(#clip0_100_25208)">
<path d="M30.9017 28.6267L43.5113 35.9827C43.6017 36.0356 43.6766 36.1112 43.7287 36.2021C43.7808 36.2929 43.8082 36.3958 43.8082 36.5005C43.8082 36.6052 43.7808 36.7081 43.7287 36.7989C43.6766 36.8898 43.6017 36.9654 43.5113 37.0183L30.9017 44.3743C30.8103 44.4276 30.7065 44.4558 30.6007 44.4561C30.4949 44.4563 30.391 44.4286 30.2994 44.3757C30.2078 44.3229 30.1317 44.2467 30.079 44.155C30.0263 44.0633 29.9988 43.9593 29.9993 43.8535V29.1451C29.9993 29.0395 30.0271 28.9358 30.08 28.8444C30.1328 28.7531 30.2089 28.6772 30.3004 28.6247C30.392 28.5721 30.4958 28.5446 30.6013 28.5449C30.7069 28.5453 30.8105 28.5735 30.9017 28.6267Z" fill="#F9F9FF"/>
</g>
<defs>
<clipPath id="clip0_100_25208">
<rect width="28.8" height="28.8" fill="white" transform="translate(21.6 22.0996)"/>
</clipPath>
</defs>
</svg>
