<svg width="58" height="242" viewBox="0 0 58 242" fill="none" xmlns="http://www.w3.org/2000/svg">
<path d="M-48.1267 106.675C-56.5772 104.477 -64.8758 101.707 -73.368 99.6339C-73.9338 99.4973 -74.4983 99.344 -75.0693 99.2288C-77.7091 98.6986 -78.6208 99.1874 -79.5087 101.648C-80.2311 103.645 -81.0123 105.628 -81.6005 107.667C-82.3106 110.128 -81.9514 111.073 -79.7514 112.22C-60.8413 122.088 -43.6566 134.609 -26.1751 146.685C-17.1467 152.924 -8.40901 159.536 0.244386 166.263C3.46143 168.766 6.49191 171.503 9.20929 174.554C10.5693 176.08 11.8071 177.726 12.5145 179.651C13.298 181.775 12.4777 183.113 10.2744 183.302C8.44579 183.459 6.57044 183.517 4.82382 182.773C-12.0464 175.593 -29.0121 168.609 -45.2331 160.015C-56.2078 154.199 -67.2468 148.508 -78.3447 142.933C-80.9416 141.628 -83.6479 140.531 -86.3416 139.429C-89.7141 138.049 -91.678 138.778 -93.2435 142.01C-94.2143 144.007 -95.0308 146.078 -95.9053 148.12C-96.6969 149.971 -95.7902 151.258 -94.4782 152.444C-91.0198 155.562 -87.5621 158.682 -84.142 161.84C-77.1542 168.295 -69.4788 173.973 -62.5782 180.509C-52.5783 189.976 -42.2408 199.121 -33.1366 209.49C-29.8685 213.208 -26.9048 217.169 -24.7292 221.657C-24.1354 222.882 -23.1413 224.368 -23.9764 225.429C-25.0133 226.752 -26.6851 225.616 -28.046 225.31C-28.8766 225.124 -29.6397 224.623 -30.4324 224.257C-39.1238 220.26 -46.7811 214.589 -54.7153 209.363C-68.3376 200.394 -81.5536 190.865 -94.4508 180.893C-103.235 174.1 -111.26 166.502 -118.201 157.83C-125.537 148.661 -129.053 138.184 -129.529 126.435C-129.879 117.824 -128.867 109.457 -127.181 101.097C-125.654 93.5095 -124.105 85.9245 -122.612 78.3287C-122.106 75.7396 -121.057 73.3379 -120.194 70.8771C-118.28 65.4054 -116.62 59.8526 -114.088 54.5863C-108.282 42.519 -98.9686 34.1851 -87.0187 28.5129C-77.0762 23.7964 -66.8071 20.1021 -55.9556 17.9607C-43.5384 15.511 -31.0999 13.5466 -18.3836 14.5133C-10.1987 15.1341 -2.17722 16.3961 4.97458 20.8853C6.93217 22.1122 8.07876 23.6798 8.35702 25.9896C8.58331 27.8829 8.10133 29.3877 6.70274 30.6881C3.50704 33.6643 -0.356122 35.4514 -4.43227 36.752C-9.99224 38.5246 -15.7227 39.6347 -21.5232 40.228C-38.8981 42.003 -56.2844 43.6735 -73.7419 44.4569C-76.529 44.5832 -78.238 45.6251 -79.1279 48.3278C-80.0789 51.2134 -80.5126 54.1675 -80.7424 57.1539C-80.9234 59.4826 -79.5017 60.9755 -77.1441 61.6804C-67.5609 64.5453 -57.7683 66.6135 -48.1353 69.2842C-40.0093 71.5403 -31.8987 73.8604 -23.8459 76.3614C-14.5955 79.2364 -5.33373 82.1225 3.62364 85.8249C13.6567 89.9734 23.8 93.9226 32.9392 99.9481C37.4097 102.897 40.9853 106.594 43.4939 111.34C44.6285 113.484 45.0333 115.725 44.7579 118.071C44.4365 120.84 42.8769 122.644 40.1348 123.402C36.1284 124.508 32.0561 124.389 27.9932 123.939C21.9141 123.264 15.8845 122.269 9.93499 120.812C1.06249 118.641 -7.82159 116.519 -16.7005 114.375L-16.6863 114.316C-27.1692 111.784 -37.6916 109.393 -48.1267 106.675ZM-29.1509 124.798C-21.4748 127.256 -13.7928 129.69 -6.0083 131.782C5.78148 134.948 17.9104 135.646 29.9907 136.685C34.9737 137.114 39.8841 136.792 44.6696 135.267C47.8823 134.244 50.9593 132.741 52.6355 129.765C58.0282 120.194 59.3677 110.459 52.8411 100.738C46.9541 91.97 39.3075 85.0735 30.1763 79.787C26.2191 77.4955 22.0073 75.7441 17.7752 74.0414C8.15252 70.1699 -1.38394 66.082 -11.3393 63.0623C-18.5946 60.8612 -25.8923 58.8589 -33.2638 57.1155C-34.8242 56.7471 -36.3788 56.366 -37.9347 55.9903C-35.2515 55.1131 -32.5414 54.6039 -29.8082 54.3263C-18.8864 53.2157 -8.05079 51.6664 2.58159 48.8535C6.46482 47.8255 10.1541 46.4427 13.5841 44.3675C16.9147 42.3531 19.3644 39.6006 21.0334 36.0693C22.0895 33.836 22.4433 31.4473 22.9951 29.1036C24.9335 20.8896 20.4878 11.4982 12.8263 7.9732C7.99137 5.74932 3.05407 3.87922 -2.29065 2.93595C-10.4414 1.49583 -18.6109 0.472043 -26.8656 0.678846C-43.3152 1.08997 -59.5527 3.20736 -75.3705 7.83252C-84.2533 10.4296 -92.5663 14.4212 -100.619 18.9614C-112.098 25.4335 -119.883 35.5657 -127.499 45.863C-128.238 46.8651 -128.753 48.0398 -129.34 49.1493C-131.797 53.801 -133.26 58.7856 -134.613 63.8506C-136.483 70.8695 -137.921 77.9814 -139.466 85.0676C-140.932 91.783 -141.641 98.6135 -142.373 105.447C-143.352 114.576 -144.627 123.682 -143.486 132.885C-142.818 138.272 -141.612 143.568 -139.812 148.677C-137.503 155.23 -133.563 160.929 -129.428 166.436C-125.052 172.257 -119.824 177.321 -114.638 182.44C-108.05 188.94 -100.956 194.765 -93.3023 199.938C-87.5136 203.849 -81.4997 207.448 -75.9001 211.605C-66.3856 218.673 -56.4976 225.153 -46.4029 231.339C-40.0129 235.252 -33.3457 238.602 -26.0426 240.535C-22.4558 241.483 -18.8547 241.471 -15.4622 240.042C-9.19266 237.401 -5.4298 232.498 -7.45575 225.332C-8.6401 221.137 -10.166 217.034 -12.8175 213.476C-21.8855 201.308 -32.3458 190.391 -43.2768 179.902C-45.8651 177.416 -48.567 175.049 -51.1963 172.604C-51.623 172.207 -52.3644 171.932 -52.0823 170.904C-50.0958 171.836 -48.1878 172.765 -46.2531 173.631C-31.6489 180.16 -17.1343 186.885 -2.44761 193.236C2.12968 195.217 6.73948 196.852 11.6016 197.899C16.4204 198.939 20.7242 197.713 24.4786 194.832C28.1669 192.003 30.1652 188.091 29.297 183.382C28.092 176.863 25.9938 170.651 21.6525 165.389C18.1679 161.164 14.0789 157.629 9.77038 154.289C-3.82188 143.757 -18.1064 134.255 -32.9069 125.509C-34.059 124.83 -35.2737 124.234 -36.1629 123.04C-33.7401 123.323 -31.4502 124.062 -29.1509 124.798Z" fill="#fff"/>
</svg>
