<svg width="115" height="185" viewBox="0 0 115 185" fill="none" xmlns="http://www.w3.org/2000/svg">
<path d="M104.8 153.329C106.369 163.879 99.6143 174.492 90.2857 179.664C80.9571 184.836 69.639 185.306 59.1384 183.438C36.189 179.349 15.4485 150.458 41.7449 135.075C60.0019 124.395 100.964 127.575 104.8 153.329Z" fill="#fff"/>
<path d="M55.2617 102.941C52.9599 112.729 44.1436 120.372 34.2627 122.244C24.3818 124.115 13.8629 120.589 6.36389 113.888C3.84529 111.636 1.56478 108.927 0.691995 105.662C-0.064276 102.842 0.293111 99.8341 1.03343 97.0113C3.30004 88.3654 9.25669 80.7552 17.1038 76.4791C35.8675 66.2522 60.7249 79.722 55.2617 102.941Z" fill="#fff"/>
<path d="M87.1996 99.2567C81.4203 96.633 75.9229 92.1934 74.5 85.9314C73.4981 81.5243 74.707 76.7293 77.2167 72.9063C79.7274 69.084 83.4426 66.1714 87.4793 64.0879C103.852 55.6349 125.599 61.1288 124.642 82.9165C124.288 90.9858 118.021 98.1678 110.461 100.929C102.903 103.69 94.4219 102.535 87.1996 99.2567Z" fill="#fff"/>
<path d="M42.6423 12.3748C55.0837 7.58851 71.5519 11.1302 73.2207 31.073C76.848 74.4311 -5.97482 31.0819 42.6423 12.3748Z" fill="#fff"/>
<path d="M106.988 45.1253C100.673 41.8606 95.9753 35.6256 94.5747 28.6569C93.1742 21.6883 95.1019 14.1225 99.6667 8.67235C114.86 -9.46944 143.178 4.01233 140.922 26.8698C140.022 35.9929 133.185 44.245 124.388 46.8282C118.658 48.5079 112.294 47.8664 106.988 45.1253Z" fill="#fff"/>
<path d="M157.31 75.937C149.175 67.2171 149.462 52.0014 157.919 43.5935C166.377 35.1833 181.593 34.9861 190.267 43.1688L192.286 45.3363C199.849 54.5572 198.595 69.7223 189.62 77.5749C180.645 85.4277 165.445 84.657 157.31 75.937Z" fill="#fff"/>
</svg>
