<svg width="64" height="64" viewBox="0 0 64 64" fill="none" xmlns="http://www.w3.org/2000/svg">
<path d="M56 5.33325L53.3333 7.99992" stroke="#fff" stroke-width="5" stroke-linecap="round" stroke-linejoin="round"/>
<path d="M8 5.33325L10.6667 7.99992" stroke="#fff" stroke-width="5" stroke-linecap="round" stroke-linejoin="round"/>
<path d="M56 42.6667L53.3333 40.0001" stroke="#fff" stroke-width="5" stroke-linecap="round" stroke-linejoin="round"/>
<path d="M8 42.6667L10.6667 40.0001" stroke="#fff" stroke-width="5" stroke-linecap="round" stroke-linejoin="round"/>
<path d="M24 48H40" stroke="#fff" stroke-width="5" stroke-linecap="round" stroke-linejoin="round"/>
<path d="M26.6666 56H37.3333" stroke="#fff" stroke-width="5" stroke-linecap="round" stroke-linejoin="round"/>
<path d="M31.9996 8C21.3326 8 15.8717 13.2008 15.9996 21.3333C16.062 25.2984 17.3326 28 19.9996 30.6667C22.6667 33.3333 24 34.6667 23.9996 40H39.9996C40 34.6669 41.3333 33.3334 43.9993 30.667L43.9996 30.6667C46.6659 28 47.9372 25.2984 47.9996 21.3333C48.1276 13.2008 42.6667 8 31.9996 8Z" stroke="#fff" stroke-width="5" stroke-linecap="round" stroke-linejoin="round"/>
</svg>
